# xmcd
#
# Track frame offsets:
#	150
#	19650
#	48720
#	83137
#	110997
#	128052
#	208975
#	238780
#
# Disc length: 4535 seconds
#
# Revision: 4
# Processed by: cddbd v1.5.2PL0 Copyright (c) Steve Scherf et al.
# Submitted via: EZCDAudioConverter 2.1.7.1
#
DISCID=7311b508
DTITLE=Various Artist - Jazzactuel [CD3]
DYEAR=2000
DGENRE=Free Jazz
TTITLE0=Don Cherry - Teo-Teo-Can [Excerpt]
TTITLE1=Anthony Braxton - B-Xo N0147a [Excerpt]
TTITLE2=Jimmy Lyons - Premonitions
TTITLE3=Claude Delcloo and Arthur Jones - Africanasia (Part 1) [Excerpt]
TTITLE4=Musica Elettronica Viva - The Sound Pool (Part 1A)
TTITLE5=Kenneth Terroade - Blessing
TTITLE6=Gong - Squeezing Sponges Over Policeman's Heads - Foghat Digs Holes In
TTITLE6=Space
TTITLE7=Alan Silva and The Celestrial Communication Orchestra - The Seasons (Par
TTITLE7=t 6)
EXTD=
EXTT0=
EXTT1=
EXTT2=
EXTT3=
EXTT4=
EXTT5=
EXTT6=
EXTT7=
PLAYORDER=
